<?xml version="1.0" encoding="UTF-8" standalone="no"?>
<!-- Created with Inkscape (http://www.inkscape.org/) -->

<svg
   width="210mm"
   height="297mm"
   viewBox="0 0 210 297"
   version="1.1"
   id="svg1"
   inkscape:version="1.4 (86a8ad7, 2024-10-11)"
   sodipodi:docname="dibujo.svg"
   xmlns:inkscape="http://www.inkscape.org/namespaces/inkscape"
   xmlns:sodipodi="http://sodipodi.sourceforge.net/DTD/sodipodi-0.dtd"
   xmlns="http://www.w3.org/2000/svg"
   xmlns:svg="http://www.w3.org/2000/svg">
  <sodipodi:namedview
     id="namedview1"
     pagecolor="#ffffff"
     bordercolor="#000000"
     borderopacity="0.25"
     inkscape:showpageshadow="2"
     inkscape:pageopacity="0.0"
     inkscape:pagecheckerboard="0"
     inkscape:deskcolor="#d1d1d1"
     inkscape:document-units="mm"
     inkscape:zoom="0.41959175"
     inkscape:cx="398.00592"
     inkscape:cy="751.92136"
     inkscape:window-width="1024"
     inkscape:window-height="715"
     inkscape:window-x="-8"
     inkscape:window-y="-8"
     inkscape:window-maximized="1"
     inkscape:current-layer="layer1" />
  <defs
     id="defs1" />
  <g
     inkscape:label="Capa 1"
     inkscape:groupmode="layer"
     id="layer1">
    <path
       style="fill:#000000;stroke-width:0.264583"
       d="m 104.04458,122.96178 c 0,-0.84077 0.84077,-2.52229 0,-2.52229 -0.84076,0 0.43257,3.24324 0,2.52229 -5.044582,-8.40765 -0.28025,-3.08281 -2.52229,-7.56688 -0.54022,-1.08045 -2.112032,-2.96292 -2.522292,-3.78344 -0.282001,-0.564 0.445884,-1.44584 0,-1.89172 -0.315285,-0.31529 -0.945859,-0.31529 -1.261147,-0.63057 -0.297254,-0.29726 0.188003,-0.88515 0,-1.26115 -0.280821,-0.56164 -1.846016,-1.16974 -2.522291,-2.52229 -0.188003,-0.376 0.297254,-0.96389 0,-1.26115 -0.297257,-0.29725 -0.885145,0.188 -1.261147,0 -1.525299,-0.76265 -2.08729,-2.71786 -3.152868,-3.78344 -0.297254,-0.297256 -0.885145,0.188 -1.261144,0 -2.815995,-1.407986 -6.143649,-1.891716 -9.4586,-1.891716 -0.515274,0 -4.913458,0.49945 -5.044586,0.63057 -0.148627,0.14863 0.148627,0.48195 0,0.63058 -0.148627,0.14863 -0.420383,0 -0.630573,0 -0.210191,0.21019 -0.465685,0.383236 -0.630574,0.630566 -0.26071,0.39107 -0.42038,0.84077 -0.630573,1.26115 -0.840764,0.84076 -1.831189,1.55475 -2.522292,2.52229 -0.386339,0.54087 -0.261874,1.33867 -0.630573,1.89172 -0.116594,0.17489 -0.481947,-0.14863 -0.630574,0 -1.913284,1.91328 -4.366191,9.36296 -5.675159,11.98089 -0.658003,1.31601 0,2.94268 0,4.41401 0,2.24288 0.102135,4.19198 0.630574,6.30574 0.354835,1.41934 2.024443,3.55103 2.522291,5.04458 0.132938,0.39881 -0.132934,0.86234 0,1.26115 0.506209,1.51862 1.29721,2.92774 1.891721,4.41401 0.34911,0.87277 1.033163,1.61036 1.261147,2.5223 0.563684,2.25473 1.584277,3.96069 2.522291,6.30573 0.583896,1.45974 0.664739,3.55356 1.261147,5.04458 0.40018,1.00045 1.985486,4.14991 2.522294,5.04459 0.305872,0.50979 0.955273,0.75136 1.261147,1.26115 0.445881,0.74313 0.149847,1.8012 0.630571,2.52229 0.329777,0.49466 0.904441,0.78554 1.261147,1.26115 0.819891,1.09318 1.187604,2.60991 1.891721,3.78343 1.298927,2.16488 2.130454,1.61925 3.152865,3.15287 0.570497,0.85575 0.874265,1.74853 1.261147,2.52229 0.67038,1.34076 2.584352,2.36216 3.152867,3.78344 0.321861,0.80466 0.18469,1.77916 0.630574,2.5223 0.241813,0.40302 0.928804,0.29823 1.261144,0.63057 0.14863,0.14863 -0.126113,0.46242 0,0.63057 0.535062,0.71342 1.432912,1.12704 1.891721,1.89172 0.202253,0.33709 0.481269,2.37299 0.630573,2.5223 0.297254,0.29725 0.911368,-0.23319 1.261147,0 1.65004,1.10002 1.746353,4.75385 2.522292,6.30573 1.312148,2.62429 -0.04353,-0.67411 1.261147,0.63057 1.304679,1.30468 -1.99372,-0.051 0.630573,1.26115 1.597552,0.79877 2.212992,-4.58063 2.522292,-5.04459 2.26785,-3.40177 0.19627,0.4343 2.52229,-1.89172 0.86664,-0.86664 1.12609,-2.19582 1.89172,-3.15287 0.37139,-0.46423 0.76649,-0.93137 1.26115,-1.26114 0.17489,-0.11659 0.53657,0.188 0.63058,0 0.18799,-0.376 -0.21629,-0.90067 0,-1.26115 0.4588,-0.76468 1.1783,-1.35666 1.89171,-1.89172 0.16816,-0.12611 0.53658,0.188 0.63058,0 0.73556,-1.47113 -0.59285,-1.29887 0.63057,-2.52229 1.6884,-1.68841 3.109,-3.71764 4.41401,-5.67516 -0.53957,-2.92548 1.35584,-0.72526 1.89172,-1.26114 0.14863,-0.14863 0,-0.42039 0,-0.63058 0.21019,-0.42038 0.29823,-0.9288 0.63057,-1.26115 0.0983,-0.0983 1.79338,-1.1628 1.89173,-1.26114 0.62194,-0.62195 0.17102,-2.69332 0.63057,-3.15287 1.30467,-1.30468 -0.051,1.99372 1.26114,-0.63057 0.18801,-0.376 -0.29725,-0.96389 0,-1.26115 0.35315,-0.35314 0.96153,-0.36228 1.26115,-1.26114 0.13294,-0.39881 -0.188,-0.88515 0,-1.26115 -1.55601,-1.90905 1.7152,-1.08463 1.89172,-1.26115 2.46096,-2.46096 -0.14596,-0.33865 0.63057,-1.89172 0.37835,-0.75668 1.51338,-1.13503 1.89172,-1.89172 0.094,-0.188 -0.14862,-0.48194 0,-0.63057 0.71466,-0.71466 1.99975,-0.84662 2.5223,-1.89172 0.29725,-0.59451 0.23176,-1.35997 0.63057,-1.89172 0.564,-0.752 1.85761,-0.59646 2.52229,-1.26115 0.378,-0.37799 1.61831,-3.23662 1.89172,-3.78343 0.35453,-0.70906 1.64274,-1.14478 1.89172,-1.89172 0.13294,-0.39881 -0.13294,-0.86234 0,-1.26115 0.188,-0.564 0.99527,-0.7294 1.26115,-1.26115 1.06276,-2.12552 1.87653,-3.13009 3.15286,-5.04458 1.79386,-2.69079 1.63953,-5.54914 2.5223,-8.19745 0.094,-0.28201 0.49763,-0.36471 0.63057,-0.63058 0.5919,-1.18379 0.94345,-3.14322 1.26115,-4.41401 0.34786,-1.39144 0.54058,-9.72858 0,-11.35032 -0.26743,-0.8023 -2.31294,-4.20466 -2.5223,-4.41401 -0.33234,-0.33234 -0.97914,-0.25457 -1.26114,-0.63058 -2.65081,-3.53441 1.47823,-0.4569 -1.89172,-3.15286 -1.23396,-0.98717 -3.30575,-2.044606 -4.41401,-3.152866 -0.33235,-0.33234 -0.29824,-0.9288 -0.63058,-1.26115 -0.14863,-0.14862 -0.44257,0.094 -0.63057,0 -2.6243,-1.31214 0.6741,0.0435 -0.63058,-1.26114 -0.18708,-0.18709 -1.7514,-0.49026 -1.89171,-0.63057 -0.25241,-0.25241 -0.34151,-0.801331 -1.26115,-1.261151 -0.50956,-0.25478 -4.00393,-0.102521 -4.41401,0 -0.73523,0.183806 -1.17276,1.021491 -1.89172,1.261151 -1.54998,0.51666 -4.42114,0.63769 -5.67516,1.89171 -0.53589,0.53589 -0.72526,1.35584 -1.26115,1.89172 -0.3874,0.38741 -1.46944,0.41659 -1.89172,1.261146 -0.094,0.188 0.14863,0.48195 0,0.63058 -0.14863,0.14862 -0.48194,-0.14863 -0.63057,0 -0.29726,0.29725 0.25223,0.92484 0,1.26114 2.86268,3.59605 -2.15561,1.52504 -2.52229,1.89172 -1.02475,1.02475 -5.91614,8.53078 -6.30574,10.08917 -0.4806,1.9224 0.89284,0.86776 -0.63057,3.15287 -0.12453,0.1868 -1.17044,0.53548 -1.26115,1.26115 -0.18249,1.45997 0,2.94267 0,4.41401 z"
       id="path5" />
    <path
       style="fill:#000000;stroke-width:0.264583"
       id="path6"
       d="m 0.29988168,5.1933731 c 1.12901912,1.392674 2.43196762,2.6327086 3.64290792,3.9535578 1.2661873,1.3499441 2.4267479,2.7720781 3.4624485,4.3038211 0.9231427,1.448843 1.7138841,2.97569 2.5488916,4.475721 1.3225383,1.810154 2.6976123,3.588415 4.0624143,5.370505 1.588558,1.952887 3.017203,4.00073 4.389048,6.107586 1.335609,2.296445 2.68965,4.577217 4.128506,6.810311 1.371637,2.004634 3.003801,3.819623 4.493042,5.740397 1.654225,2.207837 3.16744,4.503711 4.65102,6.827031 1.767946,2.875909 3.467341,5.793787 5.147093,8.722214 2.000282,3.752927 4.376266,7.279711 6.505083,10.957444 1.22887,2.028639 2.352447,4.117101 3.53097,6.174284 1.85076,2.99315 3.867849,5.879992 5.763413,8.846392 1.813836,2.79437 3.720931,5.521555 5.7696,8.148367 1.20102,1.749687 2.475135,3.446606 3.698303,5.180047 1.148805,1.686571 2.31489,3.360439 3.498236,5.023079 0.872387,1.25758 1.584955,2.61265 2.309805,3.95679 0.08439,0.15569 0.168783,0.31139 0.253172,0.46709 0,0 3.596394,1.6152 3.596394,1.6152 v 0 c -0.08421,-0.15948 -0.168413,-0.31895 -0.252617,-0.47842 -0.797274,-1.32442 -1.435814,-2.75013 -2.340924,-4.01422 -1.186696,-1.6546 -2.348424,-3.32566 -3.487931,-5.012832 C 64.461196,96.599204 63.107826,94.934872 61.928761,93.144939 59.853231,90.51719 57.918243,87.791532 56.07055,84.998583 54.200567,82.062435 52.243682,79.181694 50.418198,76.218808 49.205014,74.157889 48.091415,72.038519 46.817494,70.012583 44.655589,66.338158 42.256559,62.809347 40.262241,59.037084 38.611775,56.121601 36.952986,53.209631 35.224328,50.340503 33.714171,48.016921 32.212856,45.696735 30.556208,43.472086 29.587737,42.188836 28.607602,40.911084 27.558574,39.691717 27.306061,39.398201 27.020713,39.132634 26.783091,38.82694 26.519817,38.488244 26.300516,38.117547 26.059228,37.762849 24.61302,35.540508 23.254581,33.271994 21.955752,30.95971 20.55452,28.86761 19.188255,26.769636 17.57669,24.825971 16.214492,23.064031 14.897133,21.267453 13.517614,19.520631 12.685219,18.010271 11.879319,16.484652 10.982241,15.011447 9.9295801,13.479162 8.8380392,11.998339 7.5404921,10.656208 6.3489355,9.3473626 5.0655502,8.1214718 3.9361223,6.7603647 Z" />
    <path
       style="fill:#000000;stroke-width:0.264583"
       id="path7"
       d="m 206.8993,-1.1037531 c -0.59113,2.03741317 -1.32736,4.0218172 -2.1998,5.9539055 -0.87528,1.9440774 -1.77631,3.8752939 -2.80317,5.7445926 -1.41261,2.499595 -2.68192,5.061071 -3.83658,7.688876 -0.9848,2.430642 -2.02946,4.835251 -3.03573,7.257172 -1.2156,2.830017 -2.09469,5.788376 -3.16824,8.673618 -1.09646,2.803871 -2.16934,5.611958 -3.34468,8.384259 -0.17957,0.409305 -0.34658,0.824347 -0.53869,1.227916 -1.50655,3.164858 0.28522,-0.76358 -1.29124,2.422181 -0.7543,1.52432 -1.33613,3.146253 -1.95387,4.728027 -1.22149,3.078686 -2.46972,6.134904 -3.91091,9.11602 -1.16897,2.298507 -2.45258,4.544782 -3.86471,6.70297 -1.18135,2.303915 -2.61028,4.450035 -4.04732,6.599148 -2.08313,3.049801 -4.16522,6.088985 -6.00148,9.297429 -1.97874,3.741682 -3.76778,7.574618 -5.85787,11.258034 -2.34443,3.788642 -4.6032,7.619305 -6.75437,11.519975 -2.08139,3.66457 -4.45049,7.19006 -7.16307,10.41771 -2.12952,2.2901 -3.83309,4.91203 -5.45323,7.57231 -1.13519,1.83471 -2.16397,3.72652 -3.1855,5.62512 0,0 3.40147,1.94653 3.40147,1.94653 v 0 c 0.9866,-1.90926 1.97732,-3.81319 3.11411,-5.63985 1.5952,-2.6523 3.28915,-5.25328 5.37939,-7.55036 2.68021,-3.28194 5.07596,-6.81223 7.1879,-10.48476 2.16628,-3.88808 4.32683,-7.775546 6.70111,-11.543601 2.13649,-3.657259 3.93926,-7.481443 5.92509,-11.220064 1.8359,-3.19687 3.87739,-6.255295 6.0159,-9.256506 1.45899,-2.137561 2.90755,-4.275524 4.08027,-6.588014 1.40603,-2.182167 2.69743,-4.441547 3.88211,-6.751097 1.41746,-3.004894 2.60501,-6.097215 3.86981,-9.169681 0.62301,-1.560629 1.22025,-3.155301 1.97345,-4.660098 1.24594,-2.489266 0.12192,0.04696 1.31339,-2.450714 0.19324,-0.40509 0.35922,-0.822629 0.53883,-1.233945 1.16528,-2.783226 2.22729,-5.602737 3.33349,-8.409334 1.06988,-2.880066 1.95814,-5.829578 3.17484,-8.652269 1.01695,-2.415476 2.08811,-4.807932 3.02647,-7.255631 1.13701,-2.624386 2.41652,-5.164825 3.85751,-7.636548 1.03277,-1.879134 1.94728,-3.814015 2.81372,-5.7747151 0.87474,-1.9644556 1.60869,-3.9747121 2.31164,-6.00711723 z" />
    <path
       id="path8"
       style="fill:#000000;stroke-width:0.264583"
       d="m 97.235925,0.10903727 c 0.03543,1.76095083 0.02289,3.52218203 0.03204,5.28339843 -0.0045,2.5583197 0.02036,5.1166783 0.02274,7.6749833 5.29e-4,2.363081 -0.02338,4.725916 -0.02687,7.088973 0.05776,2.432597 0.339707,4.856258 0.473872,7.287928 0.141444,3.010574 0.165016,6.025022 0.205156,9.038208 0.04202,5.053071 0.03256,10.106609 0.03566,15.159798 -0.0031,4.754034 -0.01781,9.507634 -0.02791,14.261662 -0.01109,3.761282 -0.022,7.522772 -0.01188,11.284065 -0.01214,3.741436 0.274489,7.476123 0.447518,11.212236 0.388924,4.016496 0.516438,8.049629 0.778764,12.074201 0.179232,3.67762 0.672932,7.3263 0.967383,10.99416 0.22875,2.97469 0.26432,5.95848 0.30747,8.94002 0.0204,3.0513 0.019,6.10264 0.002,9.15396 0.0195,2.89373 -0.0123,5.78743 -0.005,8.68113 0.004,2.87378 0.0111,5.74741 -0.003,8.62118 -0.0248,2.51159 -0.003,5.02339 0.015,7.53494 0.0307,3.75022 0.0154,7.50072 0.004,11.25099 -0.0183,2.92358 -0.006,5.84692 -0.0181,8.77052 0.0283,2.7448 0.0552,5.48391 -0.17674,8.22017 -0.262641,2.42539 -0.345601,4.86252 -0.418059,7.2993 0.02765,2.66654 -0.412385,5.29802 -0.768946,7.93078 -0.398891,2.57396 -0.378972,5.18281 -0.577225,7.77317 -0.300476,2.56401 -0.331286,5.15044 -0.591179,7.71633 -0.326175,2.46404 -0.455119,4.94799 -0.558105,7.42952 -0.102571,2.3877 -0.0651,4.77787 -0.06563,7.167 -0.0093,2.72164 -0.0035,5.44328 0.01292,8.16488 0.102065,3.71119 -0.06826,7.41392 -0.257866,11.1187 -0.262125,4.23694 -0.278624,8.48215 -0.310575,12.72532 0.06041,4.66646 -0.09212,9.32519 -0.312642,13.98519 -0.143364,4.42825 -0.48462,8.84502 -0.696599,13.26999 -0.165112,3.96038 -0.249594,7.92312 -0.281119,11.88662 0.525998,0.0364 1.051751,0.0772 1.576131,0.13384 0.03986,0.004 0.07952,0.0104 0.119372,0.015 0.373023,-0.14226 0.752811,-0.2303 1.127063,-0.21084 0.194225,0.0101 0.385651,0.042 0.571542,0.094 0.02577,-3.40143 0.06354,-6.80303 0.217557,-10.20145 0.216638,-4.42381 0.595176,-8.83801 0.704867,-13.26689 0.213275,-4.66683 0.376453,-9.33007 0.307993,-14.00328 0.0388,-4.23249 0.11444,-8.46536 0.33796,-12.69276 0.19848,-3.70383 0.39766,-7.40315 0.31006,-11.11457 0.0142,-2.71845 0.0152,-5.43659 0.005,-8.15506 0.003,-2.38194 0.0221,-4.76394 0.0775,-7.1453 0.0814,-2.47545 0.21665,-4.95028 0.54829,-7.40678 0.25528,-2.5704 0.27148,-5.16194 0.58394,-7.72924 0.21099,-2.5842 0.17799,-5.18805 0.55966,-7.75922 0.3516,-2.64256 0.82046,-5.28273 0.80667,-7.95766 0.0516,-2.43128 0.15491,-4.86138 0.40256,-7.28172 0.23362,-2.74847 0.18272,-5.4972 0.1819,-8.25428 -0.0117,-2.92965 7.9e-4,-5.85951 -0.0176,-8.78913 -0.0109,-3.74884 -0.0264,-7.49754 0.004,-11.24634 0.0177,-2.50652 0.0393,-5.01286 0.0145,-7.51943 -0.0144,-2.87467 -0.007,-5.74958 -0.002,-8.62428 0.008,-2.8939 -0.0218,-5.78773 0.004,-8.68165 -0.0105,-3.05431 2.1e-4,-6.10843 -0.0114,-9.16274 -0.009,-2.99463 -0.0871,-5.99087 -0.32142,-8.97723 -0.28956,-3.67429 -0.79627,-7.32503 -1.00201,-11.00657 -0.27894,-4.014713 -0.35333,-8.042088 -0.74982,-12.04939 -0.15264,-3.734355 -0.50897,-7.463393 -0.46613,-11.203451 0.0102,-3.765187 -8.2e-4,-7.530257 -0.0114,-11.295434 -0.009,-4.762714 -0.023,-9.525297 -0.0233,-14.288017 0.006,-5.042934 0.004,-10.085897 0.0279,-15.128792 0.0186,-3.009778 0.022,-6.020628 -0.14005,-9.027356 -0.13025,-2.416842 -0.36078,-4.829725 -0.43976,-7.246587 -0.003,-2.372298 -0.0273,-4.744556 -0.0269,-7.116878 0.002,-2.550557 0.0273,-5.10064 0.0227,-7.6512124 0.009,-1.7503042 -0.003,-3.5013266 0.032,-5.251359 z" />
    <path
       style="fill:#000000;stroke-width:0.264583"
       id="path9"
       d="m 118.8589,167.30879 c 1.12275,2.26181 2.20653,4.54589 3.22295,6.85795 1.20417,2.37466 2.2055,4.84178 3.31529,7.25966 1.7593,3.92653 3.51223,7.85633 5.26335,11.78676 1.59327,3.89223 3.24103,7.74249 5.1947,11.46815 2.80265,5.41927 6.01657,10.60128 9.4078,15.66746 3.93949,5.83576 7.74047,11.76346 11.68803,17.59428 3.16119,4.52222 6.29672,9.06611 9.49466,13.56311 3.48215,4.82794 6.98949,9.64057 10.22688,14.63771 2.97663,4.82177 6.04477,9.57281 9.32699,14.19484 3.29994,4.83016 7.78341,8.62828 12.27923,12.29662 2.03737,1.92193 4.42246,3.36793 6.74196,4.90617 0,0 3.59533,1.40663 3.59533,1.40663 v 0 c -2.34278,-1.568 -4.80738,-2.96236 -6.86825,-4.9184 -4.53314,-3.63862 -9.04947,-7.41452 -12.38592,-12.23234 -1.8228,-2.54903 -3.62487,-5.11432 -5.30496,-7.76103 -2.21057,-3.48236 -0.54416,-1.0337 -2.63456,-4.37713 -0.42417,-0.67842 -0.87694,-1.33853 -1.31541,-2.00779 -3.26441,-5.01269 -6.84395,-9.8091 -10.3043,-14.68632 -3.1518,-4.53875 -6.3153,-9.066 -9.51916,-13.56733 -3.96506,-5.82506 -7.76681,-11.75747 -11.70591,-17.59948 -3.36825,-5.0334 -6.53441,-10.19129 -9.30893,-15.57972 -1.93626,-3.7301 -3.58622,-7.57834 -5.21395,-11.45166 -1.74146,-3.90206 -3.45593,-7.81574 -5.14984,-11.73854 -1.10031,-2.42353 -2.11328,-4.88609 -3.32561,-7.25768 -1.00265,-2.30254 -2.11569,-4.55298 -3.10663,-6.86026 z" />
    <path
       id="path10"
       style="fill:#000000;stroke-width:0.264583"
       d="m 75.109111,163.39313 c -0.345257,2.25935 -1.11002,4.43309 -1.792139,6.60786 -1.124702,3.94844 -2.516624,7.80422 -3.888652,11.67061 -1.043964,2.94044 -1.949305,5.92273 -2.846338,8.91005 -1.14931,3.32979 -2.442072,6.60658 -3.718636,9.8888 -1.084548,3.23885 -2.363385,6.40336 -3.629752,9.57409 -1.461143,3.77135 -2.7189,7.60729 -4.274158,11.34246 -1.690124,4.46187 -3.622062,8.81436 -5.560384,13.17129 -1.228767,2.35559 -2.139167,4.8672 -3.371887,7.22023 -0.483685,0.92327 -1.037269,1.80845 -1.55236,2.71457 -1.497697,2.47162 -3.159499,4.83555 -4.863786,7.16752 -2.187461,2.67773 -4.193223,5.49508 -6.313827,8.22327 -2.367049,2.85288 -4.430971,5.93163 -6.691581,8.86612 -2.589371,3.70404 -5.402709,7.24088 -8.176762,10.80606 -1.653965,2.21898 -3.567862,4.23134 -5.393986,6.30866 -1.468847,1.30363 -2.926288,2.60441 -4.2260984,4.08037 -1.5308037,1.84959 -3.1945632,3.59145 -5.0467203,5.12114 -1.1917306,0.77217 -2.4639983,1.33214 -3.61683353,2.13578 0.56868325,0.076 1.13581563,0.16474 1.69808753,0.26562 1.1759658,0.24926 2.3609169,0.42849 3.5310507,0.69815 0.5782745,-0.31474 1.1533767,-0.6373 1.6887858,-1.03766 1.8360578,-1.57612 3.4900352,-3.34199 5.0730752,-5.16971 1.317222,-1.45674 2.782241,-2.75373 4.21473,-4.09329 1.810424,-2.09646 3.72858,-4.11165 5.350578,-6.36137 2.733009,-3.59487 5.468117,-7.18814 8.15144,-10.82053 2.266256,-2.9311 4.369049,-5.98351 6.725171,-8.84546 2.11396,-2.73786 4.124869,-5.55433 6.318477,-8.23153 1.727784,-2.33613 3.440755,-4.68296 4.905644,-7.1975 0.50977,-0.91935 1.057761,-1.81812 1.535824,-2.75435 1.209701,-2.36906 2.122308,-4.88382 3.339331,-7.25021 0.91927,-2.10258 1.91516,-4.17183 2.791044,-6.29315 1.24999,-3.02737 0.5145,-1.41854 1.751314,-4.5129 0.319725,-0.79992 0.663534,-1.58987 0.995288,-2.38487 1.584055,-3.72035 2.893012,-7.53627 4.371826,-11.2975 1.247346,-3.18115 2.503977,-6.35619 3.599781,-9.59322 1.280586,-3.28899 2.56771,-6.57582 3.768762,-9.895 0.90882,-2.98118 1.765204,-5.97855 2.788977,-8.92349 1.336898,-3.87833 2.744666,-7.73127 3.924308,-11.66233 0.707948,-2.17166 1.499267,-4.33506 1.931149,-6.58255 z" />
    <path
       style="fill:#000000;stroke-width:0.264583"
       id="path11"
       d="m 78.059731,168.17687 c -0.151791,-2.02844 0.168971,-4.01497 0.687671,-5.96872 0.426167,-1.75847 1.108697,-3.42737 1.786308,-5.09924 0.455657,-1.18461 0.784606,-2.41429 1.162703,-3.62642 0,0 -3.423766,-1.87508 -3.423766,-1.87508 v 0 c -0.364337,1.20405 -0.693103,2.42246 -1.142844,3.59705 -0.696455,1.68403 -1.38543,3.36898 -1.796851,5.15061 -0.525381,1.97168 -0.869477,3.9792 -0.793959,6.0279 z" />
    <path
       style="fill:#000000;stroke-width:0.264583"
       id="path12"
       d="m 126.49812,177.64432 c -1.14262,-2.23835 -2.09104,-4.56585 -3.13337,-6.85039 -1.17835,-2.10558 -2.32263,-4.23065 -3.5186,-6.32682 -0.70083,-1.27885 -1.33035,-2.6026 -1.72987,-4.00755 -0.065,-0.21128 -0.13002,-0.42255 -0.19503,-0.63383 0,0 -3.55431,-1.67566 -3.55431,-1.67566 v 0 c 0.0673,0.20611 0.13457,0.41222 0.20185,0.61833 0.37164,1.44817 1.00513,2.80284 1.71702,4.11418 1.2257,2.08385 2.35751,4.21865 3.56921,6.31034 1.05128,2.24813 1.97176,4.55541 3.05215,6.79064 z" />
    <path
       style="fill:#000000;stroke-width:0.264583"
       id="path14"
       d="m 100.31377,284.73963 c 1.11625,-2.41234 2.22488,-4.84029 3.64452,-7.09128 1.53943,-2.33201 3.10923,-4.65489 5.02312,-6.69748 1.45546,-1.86491 3.27424,-3.36211 5.13228,-4.80197 1.98544,-1.46982 4.14422,-2.71714 6.42978,-3.65421 2.12149,-0.93375 4.3738,-1.48417 6.6544,-1.85084 2.78286,-0.35413 5.59593,-0.34212 8.39636,-0.36377 2.91364,0.0461 5.83766,-0.11463 8.74562,0.10193 3.15342,0.31428 6.24028,1.12765 9.31655,1.86414 3.43997,0.7273 6.75496,1.87402 10.09981,2.93016 1.94352,0.64416 3.80399,1.50321 5.6019,2.47949 1.04678,0.75817 4.94813,2.2565 -0.48877,-0.30109 -0.28101,-0.13219 0.49977,0.3688 0.74745,0.55615 1.51853,1.14858 -0.0152,0.0177 1.59066,1.19102 1.65914,1.31504 3.40594,2.48307 5.17642,3.63787 0.28548,0.18499 0.56352,0.38198 0.85643,0.55496 8.70438,5.14062 3.21624,1.74585 1.49702,0.96131 -0.26968,-0.12306 0.4704,0.361 0.70041,0.54798 0.66322,0.53919 0.92392,0.78367 1.56796,1.3558 1.86951,1.55382 3.63449,3.22265 5.39166,4.90032 0.95102,1.02847 1.86386,2.08881 2.86367,3.07039 0,0 3.61169,1.48518 3.61169,1.48518 v 0 c -1.04304,-0.95906 -1.97505,-2.02472 -2.90906,-3.08951 -1.76244,-1.65875 -3.47589,-3.37434 -5.35928,-4.89857 -0.70807,-0.64138 -1.42666,-1.41055 -2.23547,-1.92861 -5.3431,-3.42235 -5.07314,-2.97325 -1.50352,-0.99279 0.29906,0.16592 -0.57657,-0.36798 -0.86486,-0.55197 -1.74611,-1.18214 -3.54938,-2.26399 -5.17562,-3.62096 -0.77768,-0.55697 -1.52176,-1.25741 -2.3303,-1.76226 -2.01119,-1.25579 -4.04627,-2.4684 -6.15778,-3.54544 -1.81235,-0.95314 -3.67815,-1.80927 -5.63768,-2.41601 -3.32207,-1.04133 -6.63224,-2.11056 -10.03993,-2.85111 -3.11197,-0.75333 -6.23516,-1.60805 -9.43545,-1.87108 -2.90562,-0.15676 -5.82028,-0.0142 -8.72894,-0.0557 -2.82446,0.0193 -5.66517,-0.002 -8.46861,0.38718 -2.29702,0.39893 -4.57117,0.96574 -6.7051,1.92541 -2.29323,0.99043 -4.48079,2.24698 -6.48511,3.73964 -1.8678,1.45917 -3.70014,2.96946 -5.15133,4.86375 -1.90686,2.07666 -3.50391,4.4146 -5.05719,6.76267 -1.408213,2.28719 -2.521595,4.73408 -3.749836,7.12025 z" />
    <path
       style="fill:#000000;stroke-width:0.264583"
       id="path15"
       d="m 101.57127,248.33888 c 0.70169,-1.66338 1.5641,-3.26157 2.51653,-4.79425 0.9786,-1.44721 2.11111,-2.79728 3.40469,-3.97192 1.25082,-0.88355 2.27683,-2.00729 3.39657,-3.04388 0.80525,-0.62184 1.3958,-1.47909 2.20774,-2.08899 0.19015,-0.14284 0.39831,-0.25999 0.59747,-0.38998 0.21092,-0.15942 0.42184,-0.31883 0.63277,-0.47824 2.14522,-1.27814 4.4659,-2.28244 6.81834,-3.11785 3.0349,-1.06063 6.23693,-1.36958 9.41339,-1.71146 4.05886,-0.61569 8.08982,-0.22529 12.117,0.36902 3.18544,0.48227 6.22833,1.52952 9.27605,2.53278 1.53437,0.22937 8.11361,3.9069 1.82549,0.33527 0,0 3.65477,1.40486 3.65477,1.40486 v 0 c -2.78575,-1.59682 -5.41984,-3.18419 -8.50808,-4.09024 -3.04928,-0.99852 -6.1018,-2.01986 -9.29364,-2.46227 -4.04008,-0.56273 -8.07571,-0.88389 -12.13965,-0.26947 -3.22157,0.33488 -6.47878,0.60141 -9.54165,1.7346 -2.38228,0.87682 -4.74606,1.88423 -6.93058,3.18046 -1.24309,0.91109 -2.38528,1.88538 -3.46517,2.99012 -1.1156,1.03716 -2.1507,2.1497 -3.38672,3.0489 -1.2989,1.21903 -2.4645,2.5825 -3.45194,4.06681 -0.954617,1.54541 -1.801273,3.15909 -2.57221,4.80341 z" />
    <path
       style="fill:#000000;stroke-width:0.264583"
       id="path16"
       d="m 101.50857,215.61282 c 0.88153,-2.39428 2.56619,-4.38509 4.17824,-6.32296 1.68021,-2.00353 3.77425,-3.52924 5.86397,-5.05954 1.57189,-1.15566 3.3795,-1.95531 5.17828,-2.68913 1.6188,-0.75439 3.3253,-1.2803 5.02076,-1.826 1.50285,-0.44507 3.06908,-0.55517 4.62579,-0.46607 1.83977,0.28972 3.65751,0.69987 5.39116,1.38576 1.53393,0.38785 6.09147,3.10752 0.0834,-0.24753 0,0 3.65587,1.44147 3.65587,1.44147 v 0 c -2.22893,-1.33458 -4.33164,-2.82648 -6.82008,-3.60622 -1.76283,-0.62884 -3.59024,-1.05419 -5.44992,-1.27604 -1.5984,-0.0522 -3.20019,0.0655 -4.73104,0.56496 -1.68869,0.56584 -3.38445,1.1162 -5.00036,1.87443 -1.82432,0.7603 -3.67086,1.54976 -5.25116,2.75682 -2.08403,1.57228 -4.14688,3.17014 -5.84095,5.18156 -1.64096,1.97249 -3.359286,3.96961 -4.35821,6.35953 z" />
    <path
       style="fill:#000000;stroke-width:0.264583"
       id="path17"
       d="m 191.39438,283.60917 c -1.00362,-1.47034 -1.53845,-3.20709 -2.07506,-4.88894 -0.55982,-2.29238 -1.17686,-4.56975 -1.79268,-6.84771 -0.68115,-2.61895 -1.46086,-5.20994 -2.17227,-7.82128 -0.80406,-2.9756 -1.39011,-5.98723 -1.71319,-9.05114 -0.34154,-4.29791 -0.33998,-8.61347 -0.37256,-12.92203 0.003,-4.51466 -0.002,-9.02932 -2.6e-4,-13.54398 -0.0854,-4.36756 0.0747,-8.72541 0.30045,-13.08555 0.1473,-3.96194 0.48043,-7.91286 0.97473,-11.84538 0.39379,-3.34975 0.65876,-6.72733 1.31952,-10.03789 0.47285,-2.14011 1.05691,-4.2726 1.83575,-6.32386 0.71954,-2.07984 1.67348,-4.05691 2.697,-6.00096 0.84099,-1.05837 1.56606,-2.29743 2.63139,-3.1596 0.51363,-0.41568 1.1825,-0.71744 1.7622,-1.0143 2.13732,-0.91626 4.39597,-1.40114 6.69224,-1.68956 2.89643,-0.28428 5.80483,-0.25783 8.70262,-0.0347 0.46517,0.0637 0.93035,0.12746 1.39552,0.19119 0,0 -3.08396,-2.30194 -3.08396,-2.30194 v 0 c -0.4692,-0.0574 -0.93839,-0.11474 -1.40758,-0.17211 -2.92173,-0.18692 -5.86217,-0.21072 -8.77864,0.0767 -2.32225,0.3289 -4.61346,0.84662 -6.76808,1.80103 -0.69336,0.36672 -1.23321,0.60285 -1.83615,1.11143 -1.07413,0.90603 -1.83066,2.16483 -2.67974,3.26316 -1.03399,1.95556 -1.97634,3.95372 -2.73379,6.03388 -0.79848,2.07242 -1.34307,4.24435 -1.81302,6.41153 -0.64646,3.32453 -0.90879,6.71022 -1.31948,10.06945 -0.46962,3.94895 -0.76539,7.91734 -0.94725,11.88987 -0.2219,4.37097 -0.37717,8.73832 -0.28159,13.11651 -0.006,4.51442 -0.0293,9.02879 -0.006,13.54321 0.007,4.31039 0.0338,8.62415 0.30478,12.92757 0.28299,3.08768 0.83438,6.1171 1.67717,9.1042 0.70117,2.60151 1.42254,5.19374 2.11475,7.79642 0.64612,2.27198 1.25147,4.5592 1.78779,6.85888 0.51781,1.70296 1.05812,3.4305 1.9489,4.9789 z" />
    <path
       id="path19"
       style="fill:#000000;stroke-width:0.264583"
       d="m 131.29431,143.9199 3.15743,2.37453 c 3.89273,0.78255 7.77755,1.63916 11.61015,2.67891 3.04876,0.81823 6.12531,1.53212 9.19995,2.24637 5.05846,1.44275 10.21135,2.37612 15.39544,3.21841 3.95515,0.64069 7.95696,0.96375 11.91039,1.60869 3.38385,0.4957 6.70531,1.30964 10.07173,1.90582 4.70194,0.93614 9.43549,1.69587 14.14488,2.59261 0.656,0.12639 1.31335,0.24726 1.96939,0.37465 0.006,-0.55983 0.0146,-1.11971 0.0253,-1.67948 -1.64399,-0.28623 -3.28395,-0.5964 -4.92322,-0.90796 -4.74735,-0.90085 -9.50484,-1.74619 -14.24874,-2.66547 -3.37823,-0.60346 -6.70785,-1.449 -10.10894,-1.92339 -3.93007,-0.57501 -7.89172,-0.92599 -11.81685,-1.54151 -5.20074,-0.8279 -10.35358,-1.82362 -15.42283,-3.2737 -3.06756,-0.75023 -6.14169,-1.46901 -9.19944,-2.25775 -3.8987,-1.00815 -7.83166,-1.88711 -11.76466,-2.75073 z m 87.68612,18.52083 c -0.0259,0.0751 -0.0523,0.15011 -0.078,0.22531 0.10743,0.0246 0.19159,0.0365 0.52348,0.11317 z" />
    <path
       style="fill:#000000;stroke-width:0.264583"
       id="path20"
       d="m 66.465076,136.94138 c -3.534365,0.16827 -7.047582,-0.29371 -10.557293,-0.63614 -3.185951,-0.37637 -6.381924,-0.52906 -9.587206,-0.56071 -5.406599,-0.01 -10.821196,0.0255 -16.213971,0.44247 -4.498115,0.51361 -9.029574,0.51001 -13.54155,0.80025 -2.374154,0.19839 -4.764084,0.27308 -7.0657554,0.93069 -1.3775129,0.41115 -2.7568926,0.83175 -4.10162,1.34126 -1.4246095,0.6656 -2.9403605,1.09791 -4.3859877,1.70888 -0.67487663,0.29415 -1.37621488,0.4955 -2.0587934,0.7705 0,0 3.2589199,2.18515 3.2589199,2.18515 v 0 c 0.6845841,-0.26548 1.3860749,-0.47925 2.0567291,-0.77981 1.4509435,-0.59077 2.9507614,-1.05703 4.3859698,-1.6898 1.3427432,-0.48025 2.6972817,-0.92971 4.0677547,-1.32449 2.263944,-0.6005 4.599169,-0.72222 6.923872,-0.93541 4.505624,-0.31861 9.032249,-0.31821 13.525823,-0.81684 5.393444,-0.436 10.809087,-0.55473 16.217953,-0.39473 3.190534,0.0785 6.376911,0.23749 9.55231,0.57242 3.559326,0.34357 7.116519,0.77947 10.699967,0.69463 z" />
    <path
       style="fill:#000000;stroke-width:0.264583"
       id="path21"
       d="m 187.19709,157.4419 c -2.55909,1.38285 -5.48394,1.99655 -8.28055,2.73999 -3.06481,0.85429 -6.11492,1.74645 -9.14128,2.72738 -2.06505,0.50848 -3.77976,1.25739 -5.55297,2.40365 -1.32061,0.94455 -2.21035,2.30199 -3.08808,3.63758 -1.05443,1.57521 -1.69751,3.36341 -2.47799,5.0772 -0.93698,2.0125 -1.52388,4.16053 -2.23179,6.25834 -0.72043,2.16914 -1.35755,4.3635 -2.03486,6.54568 -0.79623,1.87933 -1.35051,3.83582 -1.7174,5.83989 -0.46684,2.12922 -0.8327,4.27762 -1.0537,6.44607 -0.13102,1.77113 -0.14401,3.54206 -0.29715,5.31217 -0.13317,2.22148 -0.38749,4.42139 -0.6921,6.62433 -0.25093,2.1053 -0.2887,4.22225 -0.5462,6.32685 -0.23785,2.02406 -0.38214,4.05575 -0.44207,6.09232 -0.0789,1.68542 -0.10295,3.35428 0.28377,5.00334 0.14996,0.73235 0.43342,1.42373 0.70471,2.11651 0,0 3.56225,1.64808 3.56225,1.64808 v 0 c -0.27536,-0.67934 -0.59674,-1.34527 -0.72935,-2.07244 -0.44932,-1.61054 -0.42704,-3.2559 -0.35645,-4.91696 0.0615,-2.02571 0.16978,-4.05101 0.42104,-6.06333 0.25361,-2.10314 0.3069,-4.21542 0.54669,-6.32 0.29882,-2.21134 0.54513,-4.42008 0.68394,-6.64841 0.16837,-1.76478 0.25726,-3.52522 0.32472,-5.29626 0.18845,-2.16514 0.5216,-4.31272 1.00467,-6.43269 0.3735,-1.98565 0.94153,-3.92157 1.71606,-5.79031 0.66162,-2.18431 1.27199,-4.38251 2.02784,-6.53764 0.69883,-2.08648 1.2561,-4.23255 2.21583,-6.22091 0.77521,-1.69379 1.41172,-3.46414 2.46403,-5.01619 0.84995,-1.29197 1.71817,-2.59396 3.0019,-3.50079 1.68513,-1.0985 3.50238,-1.82496 5.44722,-2.35349 3.00094,-1.00094 6.04505,-1.84889 9.07876,-2.74441 2.86435,-0.77585 5.87491,-1.36158 8.50485,-2.76902 z" />
    <path
       style="fill:#000000;stroke-width:0.264583"
       id="path22"
       d="m 136.70304,197.81381 c -0.18664,-1.79846 -0.62959,-3.55411 -0.90913,-5.33904 -0.26386,-1.92436 -0.32778,-3.86788 -0.36146,-5.80756 -0.085,-1.82794 0.0592,-3.64082 0.31429,-5.4496 0.25864,-2.02213 0.7138,-3.99809 1.44199,-5.90126 0.71486,-1.8128 1.55098,-3.58332 2.48697,-5.2924 0.85921,-1.80991 2.08922,-3.39254 3.14977,-5.08005 1.02217,-1.47156 2.09061,-2.90327 3.26076,-4.26033 1.08841,-1.27158 2.53572,-1.94178 4.00929,-2.64612 2.02378,-0.95718 4.12636,-1.76294 6.2527,-2.46429 1.75954,-0.48747 3.59814,-0.52858 5.41165,-0.56996 0,0 -3.16762,-2.28776 -3.16762,-2.28776 v 0 c -1.8386,0.0621 -3.70496,0.12413 -5.47687,0.6676 -2.1199,0.74737 -4.21865,1.57019 -6.26086,2.509 -1.54314,0.70022 -2.9987,1.45156 -4.1144,2.77535 -1.17995,1.37438 -2.25309,2.82599 -3.28329,4.31556 -1.05804,1.69717 -2.29748,3.28329 -3.14468,5.10806 -0.95263,1.71962 -1.82197,3.49293 -2.53033,5.32775 -0.75577,1.92879 -1.19029,3.93843 -1.45422,5.99247 -0.28568,1.8186 -0.4972,3.64223 -0.38552,5.48638 0.0446,1.9581 0.12947,3.91698 0.35711,5.86359 0.26903,1.75901 0.68332,3.49003 0.88312,5.25871 z" />
    <path
       style="fill:#000000;stroke-width:0.264583"
       id="path23"
       d="m 162.38801,153.08051 c -2.44253,-3.25942 -4.03979,-7.06045 -5.71868,-10.7427 -2.09226,-5.14144 -4.4465,-10.20703 -6.03517,-15.53593 -0.70481,-2.31424 -0.75884,-4.11852 0.11111,-6.36057 0.37699,-0.74375 0.83613,-1.42267 1.35602,-2.07048 0,0 -3.36593,-2.00745 -3.36593,-2.00745 v 0 c -0.5284,0.68795 -1.00173,1.40335 -1.38903,2.18312 -0.96105,2.43342 -0.9234,4.09542 -0.16729,6.62164 1.67173,5.38273 4.15905,10.46482 6.25333,15.68837 1.59177,3.62835 3.0222,7.39778 5.3194,10.65701 z" />
    <path
       style="fill:#000000;stroke-width:0.264583"
       id="path24"
       d="m 170.39334,86.729249 c 0.13839,2.280565 -0.16526,4.546147 -0.34555,6.814164 -0.26045,2.38547 -0.93971,4.69211 -1.48981,7.019847 -0.4565,1.81052 -0.58539,3.66906 -0.65446,5.52712 -0.17114,2.70637 0.40284,5.36721 1.00431,7.98838 1.21922,4.23458 2.88394,8.33671 4.66473,12.36371 1.18115,2.4807 2.43081,4.92507 3.60013,7.4111 0.55807,1.16839 1.39656,2.17847 1.97646,3.33377 0.3266,0.65066 0.58068,1.33525 0.8705,2.00311 1.15317,2.2677 2.20939,4.58804 3.41934,6.82632 0.88938,1.75523 2.23118,3.16149 3.68751,4.45428 1.73052,1.3507 3.74636,2.2859 5.66298,3.33085 0.21632,0.11794 0.87236,0.45798 0.6589,0.33494 -3.12662,-1.8022 -3.63279,-2.274 -2.50251,-1.30455 0.358,0.61358 -0.26497,1.40744 -0.58269,1.93288 0,0 3.39188,1.96788 3.39188,1.96788 v 0 c 0.42584,-0.70146 1.02355,-1.53969 0.84149,-2.39035 -0.10664,-0.12056 -0.18376,-0.27584 -0.31992,-0.36167 -1.27349,-0.80275 -2.58541,-1.54314 -3.89094,-2.29266 -0.21133,-0.12133 -0.86252,-0.45108 -0.65783,-0.31887 0.84825,0.54789 1.73535,1.03344 2.59197,1.56815 0.53097,0.33145 -2.26361,-1.27156 -1.58749,-1.00302 -1.46838,-1.24231 -2.83576,-2.60865 -3.7387,-4.32939 -1.27155,-2.19925 -2.29034,-4.53905 -3.45124,-6.79737 -0.28995,-0.67293 -0.52336,-1.37026 -0.83446,-2.03368 -0.54844,-1.16955 -1.40225,-2.17349 -2.0026,-3.31407 -1.20166,-2.49539 -2.43897,-4.96953 -3.68915,-7.44159 -1.80078,-3.98888 -3.50478,-8.05617 -4.66437,-12.28169 -0.59173,-2.58066 -1.16539,-5.19786 -0.97504,-7.86177 0.0573,-1.83747 0.17614,-3.6763 0.59619,-5.47276 0.53282,-2.35064 1.22995,-4.671967 1.51257,-7.07224 0.1861,-2.268906 0.45768,-4.533689 0.41411,-6.814265 z" />
    <path
       id="path25"
       style="fill:#000000;stroke-width:0.264583"
       d="m 187.92135,43.72498 c -0.47926,2.064678 -0.94852,4.131193 -1.3994,6.202722 -0.684,3.535008 -0.75425,7.146608 -0.8475,10.734228 -0.30574,4.171612 0.17156,8.300973 0.7488,12.423531 0.48044,3.337843 1.37814,6.586452 2.21226,9.846428 1.00663,3.431485 1.90134,6.893393 2.84014,10.343555 1.22289,3.845113 2.76262,7.579186 4.31808,11.299056 1.36982,3.06861 2.69108,6.15797 4.03438,9.23819 1.43536,3.17822 2.79715,6.38432 4.4049,9.48108 1.65288,2.9447 3.4821,5.78575 5.44308,8.53333 -0.004,-0.036 -0.007,-0.072 -0.0114,-0.10801 -0.16463,-1.33362 -0.37989,-2.66636 -0.31419,-4.01526 8.9e-4,-0.0184 0.003,-0.036 0.004,-0.0543 -0.56324,-0.92061 -1.1134,-1.84963 -1.64227,-2.79052 -1.63249,-3.07619 -2.97804,-6.27999 -4.408,-9.45266 -1.36011,-3.08189 -2.65103,-6.19408 -4.07262,-9.24905 -1.55697,-3.69378 -3.11088,-7.392515 -4.28553,-11.230834 -0.97969,-3.443192 -1.88234,-6.906666 -2.87063,-10.347689 -0.81091,-3.263895 -1.72571,-6.505928 -2.26859,-9.829891 -0.60482,-4.101653 -1.03356,-8.212877 -0.77876,-12.366687 0.10216,-3.551039 0.19738,-7.128097 0.9064,-10.621057 0.46586,-2.053993 0.89561,-4.11723 1.44797,-6.150013 z" />
    <path
       style="fill:#000000;stroke-width:0.264583"
       id="path26"
       d="m 96.109739,9.1411921 c 1.166042,4.0735669 2.76602,8.0087119 4.621111,11.8117779 2.42544,5.00128 5.59175,9.565995 8.80795,14.077024 2.57073,3.619156 5.33687,7.101226 8.35027,10.361544 3.86718,3.842784 8.36823,6.967738 12.81436,10.093187 4.50449,2.942381 9.04402,5.945592 14.04057,7.986519 4.31762,1.489742 8.94276,1.51579 13.45635,1.741874 2.72295,0.01019 5.46148,0.347501 8.18639,0.238101 1.30942,-0.05257 2.08583,-0.230447 3.38207,-0.452704 3.21632,-0.817161 6.36637,-1.889448 9.27688,-3.494535 1.7572,-0.935924 3.18437,-2.21832 4.30756,-3.84855 0.94991,-1.661819 1.61987,-3.463491 2.5243,-5.14655 0.48327,-0.964989 1.0529,-1.876214 1.62923,-2.786134 0,0 -3.40352,-1.982267 -3.40352,-1.982267 v 0 c -0.57575,0.921669 -1.1449,1.845824 -1.62312,2.823808 -0.8746,1.681906 -1.53193,3.472151 -2.49402,5.111263 -1.086,1.577462 -2.49158,2.802668 -4.18268,3.715497 -2.85851,1.603877 -5.96549,2.676908 -9.1549,3.416723 -3.83611,0.594706 -7.56036,0.360018 -11.42832,0.217381 -4.53642,-0.225327 -9.17911,-0.342516 -13.48943,-1.929772 -1.24348,-0.524944 -1.59777,-0.645674 -2.80866,-1.275943 -0.53838,-0.280233 -1.02055,-0.681911 -1.59458,-0.879107 -0.48588,-0.166918 1.74808,1.078711 1.32542,0.78664 -1.47535,-1.019513 -3.08646,-1.833313 -4.53365,-2.896637 -4.4183,-3.083467 -8.86535,-6.192191 -12.72541,-9.97318 -3.05624,-3.232978 -5.85026,-6.712532 -8.42501,-10.339744 -3.23144,-4.505852 -6.45998,-9.038905 -8.8922,-14.044786 -1.78139,-3.743309 -3.41876,-7.603487 -4.407025,-11.640633 z" />
    <path
       style="fill:#000000;stroke-width:0.264583"
       id="path27"
       d="m 98.497172,54.968793 c 0.388376,2.474023 1.682838,4.653531 2.814968,6.845927 1.17793,2.498921 2.84887,4.604332 4.77576,6.554189 2.80506,2.679827 5.98576,4.909394 9.2329,7.013557 3.75857,2.17411 7.35495,4.733501 11.39195,6.369592 1.63151,0.589563 3.3543,0.892768 4.96452,1.53367 2.3604,0.663906 4.5672,1.720462 6.94959,2.319936 0.57002,0.07097 1.13731,0.169066 1.71005,0.212921 3.15031,0.241212 6.32224,0.204441 9.47794,0.305784 1.51877,0.04877 4.40397,0.19912 5.96499,0.277066 3.31733,0.160941 6.68487,0.327105 9.99178,-0.08251 1.46946,-0.263903 2.73132,-0.870214 3.9688,-1.662099 0.57836,-0.26616 1.06666,-0.680445 1.58859,-1.038833 0,0 -3.31121,-2.113627 -3.31121,-2.113627 v 0 c -0.51901,0.356732 -1.02481,0.738862 -1.58864,1.024062 -1.18174,0.760021 -2.42773,1.300652 -3.82697,1.544132 -3.25049,0.363477 -6.54158,0.302583 -9.80274,0.142245 -5.74567,-0.247536 -11.54019,-0.141515 -17.2386,-0.959593 -2.37395,-0.652301 -4.60924,-1.674061 -6.96553,-2.382372 -1.62178,-0.573103 -3.31712,-0.916332 -4.93018,-1.524061 -1.02204,-0.436298 -1.10081,-0.444286 -2.1208,-0.992878 -0.4071,-0.218953 -1.59765,-0.930074 -1.20598,-0.68457 4.76772,2.988519 -0.84719,-0.65474 -1.503,-0.920326 -3.24002,-2.069502 -6.3947,-4.283361 -9.20893,-6.914883 -1.91801,-1.923071 -3.62952,-3.970187 -4.81332,-6.443136 -1.10143,-2.128274 -2.36648,-4.234368 -2.78799,-6.626619 z" />
    <path
       style="fill:#000000;stroke-width:0.264583"
       id="path28"
       d="m 197.28626,13.671201 c -1.45763,1.052677 -2.94783,2.070007 -4.55364,2.882416 -2.18374,1.06749 -4.50434,1.767137 -6.86957,2.29725 -4.14998,0.639465 -8.31164,1.226181 -12.47376,1.791353 -4.32136,0.430593 -8.69607,1.02678 -13.04861,0.716816 -0.92959,-0.0662 -1.85182,-0.21175 -2.77773,-0.317625 -4.1733,-0.458765 -8.21402,-1.597392 -12.15503,-3.004371 -2.61811,-1.020245 -5.16114,-2.228962 -7.68566,-3.460009 -3.28997,-1.480777 -6.57085,-2.977331 -9.84472,-4.494561 -3.69426,-1.6786356 -7.27667,-3.5739415 -10.79505,-5.5912778 0.40508,0.223869 1.56051,0.9798569 1.21526,0.671607 -0.62066,-0.5541529 -1.37598,-0.9361625 -2.05312,-1.419678 -0.66383,-0.4740068 -1.31941,-0.9596395 -1.96933,-1.4525542 -1.66318,-1.2614179 -3.2604,-2.58119316 -4.81376,-3.9739131 0,0 -3.52393,-1.4377881 -3.52393,-1.4377881 v 0 c 4.27954,3.85822097 8.95353,7.2810824 14.05989,9.9707783 3.54039,2.0175553 7.14264,3.9210049 10.85783,5.5998869 3.28425,1.514822 6.57416,3.01427 9.863,4.518377 2.53322,1.22492 5.07539,2.449624 7.7162,3.427996 3.92847,1.351864 7.95209,2.422508 12.09699,2.852318 0.93325,0.09834 1.86326,0.235121 2.79976,0.295029 4.37303,0.27974 8.76798,-0.297992 13.10779,-0.747769 4.19492,-0.574268 8.4008,-1.096017 12.58153,-1.755742 2.39999,-0.543418 4.7522,-1.251336 6.96227,-2.352494 1.62358,-0.845066 3.13267,-1.878457 4.64974,-2.899513 z" />
    <path
       style="fill:#000000;stroke-width:0.264583"
       id="path29"
       d="m 99.311128,97.315156 c 0.865312,1.564143 1.703502,3.133094 2.817922,4.534814 2.19155,2.37219 5.21185,4.22721 8.1814,5.39399 0.85448,0.41282 1.78232,0.60753 2.6521,0.97485 0,0 -3.09393,-2.42914 -3.09393,-2.42914 v 0 c -0.87929,-0.31722 -1.78012,-0.57457 -2.63069,-0.96889 -1.53784,-0.67855 -1.32272,-0.61842 1.81407,1.18639 0.28713,0.1652 -0.56765,-0.3423 -0.84158,-0.52859 -0.90193,-0.61336 -1.82536,-1.23807 -2.50478,-2.10444 -1.13312,-1.35513 -1.99313,-2.87805 -2.78077,-4.457318 z" />
    <path
       id="path30"
       style="fill:#000000;stroke-width:0.264583"
       d="m 200.59292,18.991606 c -0.54684,2.124102 -0.81145,4.299625 -0.96428,6.482808 -0.20713,3.157109 -0.19401,6.310187 -0.008,9.466089 0.0674,3.396893 1.27201,6.483093 2.49546,9.594763 1.31608,3.636991 3.28637,6.952045 5.83685,9.846944 0.94015,1.020422 1.79825,2.110797 2.65823,3.198255 V 54.87262 c -2.18696,-2.589653 -3.91217,-5.518165 -5.04465,-8.738485 -1.20454,-3.07739 -2.43227,-6.125282 -2.53628,-9.480558 -0.17611,-3.134942 -0.20301,-6.270358 0.0171,-9.405628 0.16901,-2.152048 0.38746,-4.320283 1.03663,-6.389791 z" />
    <path
       style="fill:#000000;stroke-width:0.264583"
       id="path31"
       d="m 97.122,100.30437 c -0.679461,1.11647 -1.431131,2.25483 -2.327981,3.21217 -1.044353,0.82798 -2.221916,1.47678 -3.409342,2.07432 0,0 3.261164,2.14187 3.261164,2.14187 v 0 c 1.220042,-0.63117 2.458445,-1.27612 3.502285,-2.17967 0.916416,-1.01045 1.695965,-2.17242 2.428164,-3.31972 z" />
    <path
       style="fill:#000000;stroke-width:0.264583"
       id="path32"
       d="m 96.548463,59.978924 c -0.33405,1.80484 -0.813988,3.573431 -1.258801,5.352286 -0.384302,1.446252 -1.013446,2.804736 -1.419277,4.243286 -0.387205,1.357842 -1.207254,2.52811 -1.888329,3.749104 -0.73633,1.099817 -1.53897,2.20608 -2.585119,3.028198 -1.318975,0.9519 -2.837924,1.607897 -4.378212,2.112719 -1.834589,0.676355 -3.793984,1.00579 -5.721984,1.307095 -2.151431,0.322509 -4.273312,0.729091 -6.445584,0.896387 -3.422367,0.17176 -6.852896,0.252352 -10.277295,0.115774 -2.653183,-0.200049 -5.353999,-0.173519 -7.928739,-0.914117 -1.245455,-0.281477 -2.311966,-0.987462 -3.548811,-1.277773 -1.113756,-0.431626 -2.262508,-0.680488 -3.370604,-1.12448 -0.257927,-0.111529 -0.515856,-0.223062 -0.773785,-0.334592 0,0 3.066656,2.423152 3.066656,2.423152 v 0 c 0.264959,0.111975 0.529918,0.223952 0.79488,0.335929 1.115711,0.427275 2.28229,0.682474 3.403565,1.097581 1.191363,0.376055 2.291374,1.001969 3.526912,1.255112 2.585754,0.610325 5.251061,0.618241 7.891518,0.78064 3.450479,0.113826 6.908657,0.06447 10.356572,-0.111562 2.182797,-0.164719 4.312362,-0.585562 6.473489,-0.915257 1.954326,-0.315801 3.938418,-0.642001 5.79887,-1.335193 1.564971,-0.555519 3.107034,-1.237078 4.446897,-2.230972 1.067763,-0.878202 1.936885,-1.984407 2.671196,-3.152669 0.693055,-1.249849 1.534234,-2.443239 1.938343,-3.828362 0.390247,-1.448779 1.024541,-2.810878 1.405409,-4.263652 0.428024,-1.783519 0.883885,-3.559403 1.3133,-5.342147 z" />
    <path
       style="fill:#000000;stroke-width:0.264583"
       id="path33"
       d="m 94.657258,24.119177 c -0.509802,2.027556 -1.134729,4.04072 -1.869109,5.998978 -0.499213,1.685028 -1.473899,3.092816 -2.515881,4.479155 -1.572712,2.155323 -4.124587,3.095946 -6.447425,4.203349 -3.152089,1.381984 -6.388679,2.560947 -9.678664,3.569763 -3.178747,1.090962 -6.491068,1.539642 -9.826546,1.772309 -4.358629,0.208886 -8.724225,0.182187 -13.086569,0.174792 -3.682333,0.120549 -7.327834,-0.421881 -10.966183,-0.901179 -2.500301,-0.372002 -4.815628,-1.402215 -7.20899,-2.160196 -2.129161,-0.426207 -4.095523,-1.273527 -6.105314,-2.05091 0,0 3.079965,2.418371 3.079965,2.418371 v 0 c 1.987108,0.788101 3.97983,1.501418 6.067192,1.991138 2.392897,0.787339 4.734266,1.792414 7.254949,2.105189 3.624262,0.443209 7.258153,0.940742 10.919944,0.807508 4.382203,-0.0056 8.768506,0.03554 13.147058,-0.16438 3.356517,-0.24266 6.678208,-0.743728 9.873369,-1.84694 3.302209,-1.042934 6.569181,-2.211782 9.746162,-3.591719 2.372048,-1.145791 4.959522,-2.143863 6.577941,-4.337483 1.084837,-1.405412 2.077493,-2.849883 2.571819,-4.58092 0.718225,-1.987232 1.325761,-4.018989 1.956324,-6.035337 z" />
    <path
       style="fill:#000000;stroke-width:0.264583"
       id="path34"
       d="m 11.390738,13.35454 c 1.697414,0.348242 3.266111,1.08502 4.910081,1.607503 1.81608,0.559343 3.610419,1.177703 5.407391,1.794872 1.652424,0.638688 3.325122,1.202176 5.000665,1.771971 1.420429,0.559662 2.942346,0.663962 4.42418,0.947308 2.267257,0.477804 4.480546,1.160313 6.723496,1.739699 2.989315,0.636642 6.063737,0.641232 9.105823,0.693078 4.783254,-0.290156 9.57195,-0.636319 14.347936,-1.052695 4.236352,-0.561557 8.488225,-0.981364 12.659847,-1.928023 4.30008,-1.014522 8.485947,-2.446466 12.464613,-4.363954 2.769537,-1.401126 5.459473,-3.035878 7.731837,-5.1606873 1.735108,-1.8024515 3.389712,-3.7118147 4.722603,-5.8346646 0.462738,-0.907878 0.956038,-1.7925699 1.34319,-2.73592564 0,0 -3.43184,-1.91716006 -3.43184,-1.91716006 v 0 c -0.364939,0.92846946 -0.837001,1.80033916 -1.277749,2.6944985 -1.297747,2.1020821 -2.896362,4.0106669 -4.623504,5.7726408 -2.271937,2.0621069 -4.898723,3.7025973 -7.628567,5.0936653 -3.944864,1.918237 -8.117168,3.327299 -12.393758,4.305869 -4.161258,0.902458 -8.395179,1.324333 -12.61024,1.90311 -4.782627,0.426774 -9.580327,0.781732 -14.376503,0.981871 -3.04564,-0.07013 -6.12526,-0.108309 -9.106583,-0.805986 -2.2582,-0.591702 -4.493122,-1.266099 -6.779916,-1.745427 -1.477954,-0.251308 -2.970478,-0.439014 -4.380396,-0.984714 -1.679981,-0.551475 -3.332794,-1.169517 -4.995185,-1.772237 -1.795646,-0.61995 -3.599351,-1.213355 -5.409211,-1.790118 -1.644289,-0.564408 -3.2629286,-1.193585 -4.938215,-1.660082 z" />
    <path
       style="fill:#000000;stroke-width:0.264583"
       id="path35"
       d="m 6.4982393,14.71871 c 0.4481748,1.880907 0.9996864,3.733248 1.5745198,5.578597 0.5125416,1.995495 0.9457418,4.008639 1.4933041,5.995856 0.7148088,2.614608 1.3332688,5.253729 2.0152008,7.876822 0.737854,2.628246 1.294875,5.274952 1.579441,7.989482 0.120711,3.711694 0.582567,7.391498 0.960342,11.082152 0.224688,4.017857 0.909422,7.984329 1.374421,11.976177 0.370376,3.415456 0.418231,6.853991 0.44836,10.285894 0.02346,2.641325 -0.286653,5.27527 -0.619172,7.891941 -0.305065,2.738787 -0.780247,5.451348 -1.060721,8.193503 -0.07807,2.228138 -0.302573,4.43925 -0.509566,6.657017 -0.327928,3.222799 -1.132911,6.369989 -1.895442,9.510839 -0.922835,3.74658 -1.909363,7.47315 -3.0529733,11.15816 -0.930334,3.00584 -1.9714356,5.96466 -3.0965682,8.90263 -0.7314877,2.15383 -1.5133696,4.26972 -2.5438904,6.2989 -0.8840981,1.44976 -2.0264693,2.71402 -2.85171287,4.2008 -0.0917158,0.2136 -0.18343155,0.4272 -0.27514733,0.64079 0,0 3.4253303,1.92112 3.4253303,1.92112 v 0 c 0.083752,-0.20259 0.1675045,-0.40517 0.2512565,-0.60775 0.8129905,-1.49664 1.965412,-2.76143 2.8267551,-4.22888 1.0459249,-2.04249 1.8189337,-4.17599 2.5216376,-6.3589 1.1214326,-2.94924 2.1723426,-5.91477 3.0898886,-8.93445 1.140693,-3.69408 2.061802,-7.4485 3.049646,-11.18564 0.783218,-3.14723 1.599863,-6.29769 1.987913,-9.52376 0.230654,-2.218222 0.436243,-4.429106 0.505654,-6.65988 0.250289,-2.744951 0.710826,-5.458984 1.031496,-8.195352 0.339569,-2.632922 0.708308,-5.28275 0.636217,-7.943413 -0.05304,-3.445902 -0.113236,-6.898444 -0.445428,-10.330688 -0.498954,-3.994013 -1.222394,-7.961466 -1.41711,-11.988364 -0.35418,-3.681854 -0.831185,-7.349741 -0.901288,-11.053325 -0.26309,-2.732929 -0.779097,-5.397185 -1.540877,-8.037531 -0.691952,-2.618489 -1.306664,-5.256348 -2.001371,-7.87422 -0.534358,-1.989173 -0.975576,-3.999517 -1.465608,-5.999203 -0.574752,-1.818481 -1.130267,-3.64149 -1.545227,-5.504099 z" />
    <path
       style="fill:#000000;stroke-width:0.264583"
       id="path36"
       d="m 29.348829,46.507405 c 1.042421,2.579692 2.114002,5.14001 3.413673,7.6011 1.371684,2.109886 1.675238,4.592188 2.180666,7.001592 0.814687,4.651566 1.098109,9.386449 1.42194,14.093857 0.56179,6.014082 0.79942,12.049733 0.955426,18.085742 0.130345,5.242057 0.16123,10.479924 -0.04651,15.719564 -0.02082,3.79784 -0.468784,7.53968 -1.195385,11.25941 -0.403643,2.21203 -0.924293,4.3943 -1.746483,6.48899 -0.557871,1.64693 -1.264751,3.20865 -2.151917,4.70278 0,0 3.376827,1.95587 3.376827,1.95587 v 0 c 0.903874,-1.5109 1.632024,-3.08347 2.179036,-4.75947 0.845262,-2.11974 1.325994,-4.33948 1.720088,-6.58375 0.743416,-3.75383 1.127829,-7.53286 1.119556,-11.36564 0.191931,-5.24716 0.241406,-10.49707 0.04962,-15.745768 -0.18985,-6.035048 -0.460989,-12.069958 -0.930379,-18.090231 -0.333684,-4.701768 -0.597596,-9.427843 -1.300149,-14.089655 -0.485709,-2.42692 -0.719468,-4.959985 -2.094082,-7.084888 -1.322311,-2.422255 -2.446179,-4.929783 -3.400843,-7.521782 z" />
    <path
       style="fill:#000000;stroke-width:0.264583"
       id="path37"
       d="m 50.812689,82.780776 c 1.573982,1.632781 2.722568,3.588938 3.798313,5.568244 1.520849,3.316819 1.920777,6.94771 2.190814,10.542889 0.184049,3.287101 0.240199,6.577011 -0.01905,9.859861 -0.229185,2.99783 -0.497369,5.99388 -0.875179,8.97705 -0.328599,2.5808 -0.789696,5.14478 -1.597948,7.61918 -0.561927,1.64711 -1.176679,3.27313 -1.726964,4.92445 -0.586116,1.5439 -1.096402,3.11422 -1.643722,4.6723 0,0 3.414012,1.88751 3.414012,1.88751 v 0 c 0.548592,-1.55919 1.085439,-3.12167 1.65936,-4.67138 0.54823,-1.65487 1.15215,-3.28844 1.698448,-4.94359 0.803976,-2.50662 1.267571,-5.09387 1.585995,-7.707 0.384603,-2.98557 0.675393,-5.98439 0.901186,-8.98597 0.236749,-3.30829 0.196221,-6.62034 0.0016,-9.93166 -0.247142,-3.629984 -0.66049,-7.281734 -2.083123,-10.668554 -1.039138,-1.991212 -2.163355,-3.932939 -3.650517,-5.630127 z" />
    <path
       id="path38"
       style="fill:#000000;stroke-width:0.264583"
       d="m 2.3486938,143.45378 c 2.165942,2.62849 3.8444124,5.61032 5.4260254,8.61342 1.5703983,3.39911 2.8726918,6.91556 3.9522138,10.4991 0.963495,3.72683 1.565229,7.53878 2.201416,11.33265 0.954716,5.66744 1.89068,11.3392 2.599324,17.0434 0.531399,5.4199 1.045143,10.84242 1.469678,16.27188 0.421357,5.70447 0.777599,11.41073 0.974101,17.12763 0.169457,5.27117 0.19279,10.54483 0.166398,15.81816 0.171777,3.15178 -0.437685,6.17877 -1.385445,9.16068 -1.015292,3.19455 -2.327988,6.27754 -3.534151,9.40046 -1.331364,3.58743 -2.693683,7.15982 -4.079338,10.72648 -1.279633,3.54473 -2.9724327,6.91446 -4.5557943,10.32753 -1.2002953,2.56656 -2.209876,5.21262 -3.2809366,7.83363 -0.5539793,1.43648 -1.2295343,2.81799 -1.93063155,4.18734 0.66926035,0.88954 1.03668505,2.31208 0.77359615,4.20388 -0.1311423,0.94301 -0.34818143,1.90078 -0.29300533,2.85667 0.0141697,0.0106 0.0266363,0.0242 0.0403076,0.0357 0.031885,-4.9e-4 0.0637066,2.3e-4 0.0956014,-5.2e-4 0.0117286,-2.7e-4 0.0229387,2.3e-4 0.0346232,0 0.3769576,-0.73467 0.7557252,-1.46852 1.1833903,-2.17712 1.1754977,-2.39662 2.4644027,-4.74293 3.4483683,-7.2285 1.0914377,-2.60784 2.0928745,-5.25246 3.2488973,-7.83363 1.5814925,-3.42382 3.2460925,-6.81678 4.5402915,-10.36423 1.37876,-3.56854 2.788454,-7.12224 4.093807,-10.71873 1.214291,-3.126 2.568266,-6.19859 3.579626,-9.40149 0.97271,-3.02726 1.625656,-6.09368 1.375627,-9.29969 -0.05227,-5.28572 -0.05245,-10.57325 -0.214974,-15.85691 -0.222778,-5.7184 -0.559849,-11.43032 -0.960665,-17.13901 -0.434392,-5.43168 -0.941583,-10.85732 -1.452108,-16.28221 -0.735033,-5.70702 -1.697835,-11.381 -2.608109,-17.06201 -0.587393,-3.78996 -1.096825,-7.60794 -2.065507,-11.3223 -1.089805,-3.61506 -2.437139,-7.147 -3.982703,-10.59212 -1.5425912,-2.98896 -3.1836323,-5.94601 -5.2363727,-8.62066 z" />
    <path
       style="fill:#000000;stroke-width:0.264583"
       id="path39"
       d="m 29.192505,136.34791 c 0.912628,2.44897 1.894846,4.86921 2.760329,7.33724 0.794587,2.86225 1.455624,5.76484 2.09245,8.66674 1.101524,3.74016 1.711259,7.58122 2.296096,11.42684 0.888003,5.77439 1.790597,11.546 2.669112,17.32195 1.037037,5.7691 1.600501,11.60441 2.165593,17.43382 0.516871,5.23372 0.587423,10.49487 0.658241,15.74901 0.04181,5.27029 0.03483,10.54076 0.02633,15.81115 0.05428,3.87025 -0.0118,7.72875 -0.346321,11.58461 -0.01654,2.23717 -0.44918,4.38853 -0.996257,6.54327 -0.241591,0.75329 -0.492064,1.5029 -0.723244,2.25946 0,0 3.439978,1.88094 3.439978,1.88094 v 0 c 0.225343,-0.76598 0.470649,-1.52488 0.71579,-2.28478 0.530953,-2.18373 0.989899,-4.35778 0.984825,-6.62152 0.279635,-3.88796 0.301995,-7.77444 0.24131,-11.67204 -5.29e-4,-5.27293 0.01453,-10.54603 -0.03085,-15.81881 -0.05639,-5.26077 -0.141404,-10.53099 -0.630486,-15.77233 -0.624544,-5.84154 -1.175076,-11.69649 -2.222278,-17.48259 -0.888177,-5.75313 -1.727682,-11.51447 -2.571483,-17.27355 -0.582224,-3.83253 -1.127027,-7.67641 -2.207625,-11.40989 -0.619837,-2.92267 -1.356723,-5.82258 -2.090685,-8.71791 -0.838681,-2.43117 -1.771335,-4.82536 -2.668801,-7.23437 z" />
    <path
       style="fill:#000000;stroke-width:0.264583"
       id="path40"
       d="m 49.495842,136.4107 c 1.573159,2.53467 3.10752,5.08345 4.46836,7.7394 1.568696,2.79899 2.479775,5.81491 3.204445,8.91584 0.491149,3.33506 1.051613,6.65509 1.629452,9.97706 0.596554,2.9197 1.25112,5.81774 1.603886,8.77983 0.268396,3.00437 0.598138,6.00035 0.777396,9.01207 0.138914,2.70894 0.14872,5.42188 0.157927,8.13363 0.09604,2.31983 -0.08672,4.62229 -0.277635,6.93073 -0.05598,1.18403 -0.250478,2.35456 -0.409932,3.52733 0,0 3.425145,1.80493 3.425145,1.80493 v 0 c 0.165841,-1.17871 0.365212,-2.35583 0.414618,-3.54729 0.208698,-2.3184 0.408572,-4.62867 0.296415,-6.9604 -0.01402,-2.72265 -0.04969,-5.44596 -0.1769,-8.16602 -0.165301,-3.01902 -0.512562,-6.01831 -0.766038,-9.03009 -0.31665,-2.97394 -0.996082,-5.87392 -1.593262,-8.80018 -0.57775,-3.32896 -1.237073,-6.63907 -1.62229,-9.99893 -0.764358,-3.21775 -1.546826,-6.09829 -3.199914,-9.01511 -1.336844,-2.62732 -2.824247,-5.16158 -4.317925,-7.70114 z" />
    <path
       style="fill:#000000;stroke-width:0.264583"
       id="path41"
       d="m 70.103031,196.53388 c 1.494409,-0.36652 2.975247,-0.79658 4.478758,-1.14427 2.261158,-0.41944 4.531294,-0.77652 6.817987,-1.0252 1.989402,-0.23173 3.968689,-0.30091 5.931302,0.13011 1.612429,0.34538 3.260296,0.65025 4.697849,1.48985 -5.026935,-2.82752 -2.817011,-1.79928 -1.999163,-0.51329 0.345663,0.54353 0.590683,1.1765 0.850228,1.76369 0.494962,0.95506 1.226995,1.74678 1.778926,2.67248 0.531887,1.02936 0.999527,2.0786 1.386216,3.17091 0.334579,1.23279 0.584271,2.48125 0.909246,3.71778 0.252325,1.1608 0.600146,2.29758 0.996714,3.41629 0.622406,1.32752 0.9447,2.73434 1.140048,4.17888 0.0227,0.23708 0.04539,0.47415 0.06808,0.71122 0,0 3.511188,1.74876 3.511188,1.74876 v 0 c -0.0212,-0.24182 -0.0425,-0.48364 -0.0638,-0.72546 -0.18122,-1.45925 -0.44347,-2.91021 -1.093417,-4.24423 -0.370473,-1.11733 -0.785276,-2.22425 -1.005044,-3.38628 -0.316434,-1.25019 -0.637529,-2.48896 -0.907677,-3.75019 -0.366662,-1.11716 -0.820124,-2.18234 -1.343424,-3.23137 -0.510286,-0.95595 -1.193991,-1.75861 -1.804533,-2.6381 -1.297654,-3.08265 -1.884267,-3.3758 -5.480455,-5.34968 -1.497613,-0.72752 -3.132095,-1.05735 -4.755424,-1.38774 -1.987699,-0.34635 -3.977381,-0.26417 -5.975922,-0.0147 -2.297782,0.27168 -4.588454,0.60721 -6.85982,1.05017 -1.513528,0.35079 -3.007421,0.78231 -4.52587,1.09716 z" />
    <path
       style="fill:#000000;stroke-width:0.264583"
       id="path42"
       d="m 46.136324,250.9732 c 1.028573,-1.52616 2.188017,-2.98194 3.459326,-4.31396 1.32084,-1.67189 3.089614,-2.7596 4.932813,-3.75762 2.529202,-1.27561 5.196244,-2.18867 7.913158,-2.97134 2.471375,-0.7161 4.950055,-1.26874 7.511783,-1.51218 3.280656,-0.39734 6.556996,-0.84068 9.816541,-1.38644 2.813405,-0.32334 5.611408,-0.77025 8.429501,-1.05404 2.304306,-0.24148 4.617606,0.008 6.889191,0.39974 1.15597,0.55892 4.676574,1.83874 -0.775642,-0.6451 -0.292634,-0.13332 0.520478,0.38114 0.751891,0.60442 0.493744,0.4764 0.820213,0.99326 1.213686,1.54882 0.502539,0.72586 0.822748,1.53502 1.121542,2.3576 0,0 3.543306,1.6578 3.543306,1.6578 v 0 c -0.28785,-0.8557 -0.597,-1.69886 -1.096347,-2.46045 -0.290004,-0.43309 -0.816385,-1.25494 -1.171167,-1.64184 -1.731608,-1.88838 -4.2887,-2.98185 -6.694961,-3.75792 -2.28953,-0.36326 -4.614127,-0.56641 -6.928033,-0.29998 -2.817876,0.29905 -5.616622,0.7561 -8.431172,1.08422 -3.25169,0.5691 -6.526221,1.01318 -9.809171,1.35758 -2.572758,0.25762 -5.058486,0.83922 -7.534156,1.58417 -2.737511,0.8105 -5.446828,1.71442 -7.996488,3.0153 -1.871348,1.0272 -3.666255,2.15901 -5.022829,3.84699 -1.258856,1.36168 -2.408994,2.82921 -3.511748,4.3187 z" />
    <path
       style="fill:#000000;stroke-width:0.264583"
       id="path43"
       d="m 93.769277,282.9833 c -0.305713,-1.69971 -0.974289,-3.31142 -1.671024,-4.88291 -1.188323,-2.11749 -2.659877,-4.11419 -4.461232,-5.75098 -3.964654,-2.63525 -5.469837,-3.01919 -9.808829,-3.38543 -3.003756,-0.20261 -6.017731,-0.20042 -9.027155,-0.22365 -1.396359,0.0774 -2.816698,-0.12314 -4.211243,-0.005 -0.561716,0.0478 -1.518904,0.27355 -2.07368,0.39407 -2.508348,0.49675 -4.982638,1.15662 -7.438895,1.86693 -2.908657,0.87119 -5.796822,1.78146 -8.753652,2.48083 -2.791815,0.86178 -5.638395,1.51646 -8.486024,2.16054 -3.482419,0.7198 -6.946876,1.52868 -10.441267,2.19744 -3.267572,0.63995 -6.489534,1.49733 -9.64507,2.5586 -2.936565,0.71131 -5.337808,2.46822 -7.8211505,4.08805 -2.5385513,1.68529 -4.9954777,3.51997 -7.2408051,5.5834 -0.7268214,0.83958 -1.6181332,1.48987 -2.46624878,2.1934 0,0 3.33114918,2.08198 3.33114918,2.08198 v 0 c 0.8430321,-0.71287 1.707044,-1.39912 2.436019,-2.23605 2.2001395,-2.07089 4.6153642,-3.91692 7.1472712,-5.56297 2.474805,-1.58986 4.893827,-3.25787 7.79026,-3.99346 3.13159,-1.04789 6.329512,-1.88675 9.563813,-2.55355 3.514511,-0.69173 7.017737,-1.44015 10.527607,-2.15366 2.834174,-0.66553 5.66034,-1.3599 8.452644,-2.18741 2.957573,-0.71472 5.858298,-1.6043 8.767328,-2.49158 2.467369,-0.69456 4.95668,-1.31244 7.471333,-1.81142 2.055868,-0.41836 4.119272,-0.35608 6.210716,-0.34155 3.00047,0.003 6.005216,0.01 8.998381,0.24392 1.291778,0.12644 2.568964,0.25233 3.831463,0.5683 0.331036,0.0828 0.659979,0.17542 0.983956,0.2826 0.277781,0.0919 1.057958,0.48379 0.81965,0.31403 -0.805193,-0.57356 -1.69096,-1.02465 -2.536441,-1.53699 1.867844,1.53501 3.328958,3.5374 4.557334,5.60488 0.672399,1.53358 1.364475,3.10902 1.63177,4.77004 z" />
    <path
       id="path44"
       style="fill:#000000;stroke-width:0.264583"
       d="m 89.096887,278.8574 c 0.490781,1.7236 1.230831,3.35851 1.934766,5.00176 0.652214,1.84624 1.17891,3.73937 1.674316,5.63376 0.477872,2.27197 0.772718,4.58217 1.033012,6.88847 0.04866,0.91298 0.190461,1.81465 0.347266,2.71353 0.441027,-0.10679 0.926443,-0.17761 1.458309,-0.20309 0.143369,-0.007 0.286392,-0.0109 0.429431,-0.0119 0.432262,-0.003 0.862974,0.0206 1.292944,0.0574 -0.03334,-0.27947 -0.05898,-0.55995 -0.0708,-0.84233 -0.255956,-2.3168 -0.519155,-4.63901 -0.984436,-6.92464 -0.476168,-1.91407 -1.025544,-3.81201 -1.642277,-5.68492 -0.68562,-1.61454 -1.427004,-3.20891 -1.910477,-4.90048 z" />
    <path
       style="fill:#000000;stroke-width:0.264583"
       id="path45"
       d="m 187.8704,289.95118 c -1.732,-0.63164 -3.58317,-0.7771 -5.40809,-0.89545 -2.00605,-0.13237 -3.99832,-0.19902 -5.99394,0.0494 -2.29327,0.57528 -4.50748,1.23389 -6.61396,2.31487 -2.38802,1.32821 -4.74956,2.72309 -7.09306,4.133 -1.16973,0.69064 -2.40476,1.26458 -3.58324,1.93543 0,0 3.29696,2.14519 3.29696,2.14519 v 0 c 1.17896,-0.66249 2.37971,-1.28524 3.544,-1.97562 2.31765,-1.42539 4.65791,-2.83279 7.05336,-4.12041 2.09754,-1.0183 4.30371,-1.68389 6.58366,-2.17302 1.97116,-0.21844 3.9459,-0.13846 5.92304,-0.009 1.83133,0.15102 3.68704,0.32901 5.40128,1.04134 z" />
    <path
       style="fill:#000000;stroke-width:0.264583"
       id="path46"
       d="m 193.01888,291.9645 c 1.57824,0.13261 2.85607,0.56314 4.2672,1.24696 1.72785,0.72953 3.51197,1.29064 5.19202,2.13077 0.28449,0.13761 0.57213,0.26884 0.85346,0.4128 0.52057,0.26636 1.03788,0.53906 1.55566,0.81082 0.24061,0.12628 0.94948,0.529 0.71382,0.39372 -3.06969,-1.76244 -3.46121,-2.05171 -1.99131,-1.05963 0.69624,0.47178 1.40017,0.9506 1.97037,1.57689 0.13608,0.14947 0.2571,0.3129 0.36876,0.48139 0.0404,0.0609 0.0121,0.19179 0.0845,0.20245 0.062,0.009 0.0236,-0.12321 0.0353,-0.18483 4.95342,2.68917 3.55305,2.4317 2.72373,0.62542 -0.47084,-1.0255 -0.85094,-2.0914 -1.26979,-3.13854 -0.95659,-2.32418 -1.52216,-4.75353 -1.84793,-7.23726 -0.3113,-3.13589 -0.30976,-6.29324 -0.31796,-9.44147 -0.16281,-2.59604 0.35175,-5.10394 1.03709,-7.58584 0.31219,-1.26166 0.95639,-2.39358 1.53623,-3.54422 0,0 -3.38959,-1.93027 -3.38959,-1.93027 v 0 c -0.58573,1.17716 -1.24103,2.33119 -1.56157,3.61831 -0.68114,2.52629 -1.20834,5.07463 -1.01642,7.714 0.013,3.15368 -0.0427,6.3169 0.25127,9.4605 0.30498,2.50854 0.84683,4.96562 1.78956,7.31985 0.42349,1.04114 0.81548,2.09275 1.2323,3.13651 0.0149,0.0373 0.41781,1.12249 0.51638,1.18382 1.18008,0.73404 2.44073,1.3298 3.66109,1.9947 0.0673,-0.0931 0.17637,-0.16733 0.2019,-0.27932 0.18743,-0.82249 -1.82254,-2.15107 -2.36396,-2.53929 -2.43677,-1.74255 -5.13876,-3.0874 -7.81547,-4.41838 -1.70218,-0.80116 -3.4941,-1.37068 -5.21066,-2.14019 -1.39508,-0.64072 -2.83975,-0.99864 -4.36205,-1.1993 z" />
    <path
       id="path50"
       style="fill:#000000;stroke-width:0.264583"
       d="m 210.05436,256.20607 c -0.55025,0.59221 -1.01098,1.23049 -1.4025,1.94045 -0.7929,1.5644 -1.55997,3.13906 -2.45204,4.65088 -0.55792,1.29476 -1.2003,2.5588 -1.67225,3.88606 l 3.49074,1.86604 c 0.3987,-1.32221 1.05036,-2.562 1.60145,-3.82922 0.18004,-0.32325 0.35551,-0.64874 0.5302,-0.97462 -0.26253,-0.79173 -0.33015,-1.7934 -0.0935,-2.99568 0.14366,-0.7302 0.0894,-1.48709 0.20205,-2.22312 0.0735,-0.68186 0.18256,-1.36428 0.2434,-2.04846 z" />
  </g>
</svg>
